<svg data-name="logo" xmlns="http://www.w3.org/2000/svg" width="360" viewBox="0 0 140 61.39">
			<title>Metz Numeric School</title>
			<defs>
				<clipPath id="clippath-2-s">
					<path fill="" d="M140.04 28.76c0 6.1-4.73 11.05-10.56 11.05h-28.95v-6.12h28.95v.1a5.045 5.045 0 0 0 4.8-5.26c-.12-2.6-2.2-4.67-4.79-4.79v.09h-18.73v-.04c-6.17-.56-10.73-6.01-10.17-12.18.49-5.4 4.77-9.68 10.17-10.16V1.4h28.61v6.12h-27.65c-2.8.03-5.05 2.3-5.05 5.1s2.28 5.1 5.1 5.1h17.72c5.83 0 10.56 4.94 10.56 11.04Z"></path>
				</clipPath>
				<clipPath id="clippath-2-n">
					<path fill="none" d="M95.29 1.4v28.56h-.01c-.39 5.81-5.42 10.22-11.24 9.83-5.29-.34-9.5-4.55-9.86-9.83h-.01v-18.7a4.422 4.422 0 0 0-4.47-4.37h-.01c-2.4.02-4.35 1.97-4.38 4.37v28.9h-6.12v-28.9h.01c.38-5.82 5.41-10.23 11.23-9.84 5.29.33 9.51 4.55 9.86 9.84h.01v18.69c.03 2.44 2.03 4.4 4.47 4.37a4.414 4.414 0 0 0 4.38-4.36V1.4h6.13Z"></path>
				</clipPath>
				<clipPath id="clippath-2-m">
					<path fill="none" d="M52.93 11.26v28.9h-6.14v-28.9a4.422 4.422 0 0 0-4.37-4.47 4.424 4.424 0 0 0-4.48 4.37v18.8h-.02c-.38 5.81-5.41 10.22-11.23 9.84a10.56 10.56 0 0 1-9.86-9.84h-.02v-18.7a4.422 4.422 0 0 0-7.55-3.07c-.79.78-1.29 1.87-1.3 3.07v28.89H1.83V11.26c.4-5.82 5.42-10.22 11.24-9.84 5.3.34 9.52 4.55 9.87 9.84h.01v18.7c0 2.44 1.99 4.42 4.43 4.42s4.42-1.98 4.43-4.42v-18.7h.01c.38-5.82 5.41-10.22 11.23-9.84 5.29.34 9.51 4.55 9.86 9.84h.02Z"></path>
				</clipPath>
			</defs>
			<g data-name="metz-numeric-school" fill="#ffffff">
				<g data-name="metz">
					<path d="M20.9 54.58c-.64 0-1.22.14-1.73.41-.51.28-.91.68-1.2 1.2-.29.52-.43 1.12-.43 1.81-.01.59.12 1.17.37 1.7.24.51.64.94 1.14 1.23h.01c.52.31 1.17.46 1.95.46.57 0 1.07-.05 1.47-.17.34-.08.67-.22.97-.4l-.47-1.09c-.25.14-.52.24-.81.32-.3.07-.67.11-1.12.11-.55 0-.98-.13-1.29-.38-.31-.26-.51-.67-.62-1.25h4.69c.03-.27.04-.54.04-.79 0-1.01-.24-1.78-.73-2.33-.49-.56-1.24-.83-2.24-.83Zm-1.76 2.88c.15-1.06.72-1.6 1.72-1.6.49 0 .87.12 1.13.36.27.25.4.66.39 1.24h-3.24ZM33.55 60.02l1.65-.03v1.26h-5.58l2.97-4.78.35-.51-1.57.04h-1.13v-1.25h5.07l-2.94 4.78-.35.54 1.53-.05zM27.59 54.74h1.5v1.25h-1.5v5.25h-1.55v-5.25h-1.15v-1.24h1.15v-2.66l1.55-.34v2.99zM14.37 50.83l2.24 10.42h-1.56l-1.04-4.86-.32-1.47-.57 1.47-2.53 4.86h-.08l-2.52-4.86-.65-1.47-.3 1.47-.97 4.86H4.5l2.16-10.42h.17l2.87 5.63.85 1.88.85-1.88 2.81-5.63h.16z"></path>
				</g>
				<g data-name="numeric">
					<path d="M46.62 50.84h1.59v10.41h-.22l-6.1-6.74.04 1.13v5.61h-1.59V50.82h.2l6.13 6.83-.05-1.19v-5.62zM54.66 54.74h1.52v6.5h-1.25l-.17-.95c-.22.35-.52.64-.89.83-.36.18-.78.27-1.28.27-.9 0-1.52-.27-1.86-.8-.34-.53-.51-1.26-.51-2.21v-3.64h1.54V58c0 .54.03.96.09 1.25.04.26.17.49.37.66.18.14.46.22.83.22.27 0 .54-.08.77-.23.51-.32.83-.87.84-1.48v-3.68ZM68.71 56.06c.11.48.17 1.12.17 1.93v3.25h-1.54v-3.27c0-.77-.08-1.31-.24-1.64-.15-.33-.45-.5-.9-.5-.6 0-1.05.2-1.36.6-.3.41-.46.93-.46 1.58v3.23h-1.53v-3.5c0-.5-.02-.87-.06-1.11a.949.949 0 0 0-.31-.59c-.17-.14-.45-.21-.83-.21-.33 0-.66.11-.93.3-.61.44-.96 1.14-.96 1.88v3.23h-1.55v-6.5l1.53.01v1.17c.21-.44.52-.78.92-1 .4-.23.86-.35 1.38-.35 1.16.01 1.88.42 2.15 1.21.21-.37.52-.66.93-.88.41-.22.86-.33 1.32-.33.69 0 1.2.13 1.55.39.35.26.59.63.71 1.1ZM73.82 54.58c-.64 0-1.22.14-1.73.41-.51.28-.91.68-1.2 1.2-.28.52-.43 1.12-.43 1.81-.01.59.12 1.17.37 1.7.25.52.65.95 1.15 1.23.53.31 1.18.46 1.95.46.58 0 1.07-.05 1.48-.17.34-.08.66-.22.96-.4l-.47-1.09c-.25.14-.52.24-.81.32-.29.07-.66.11-1.12.11-.55 0-.98-.13-1.28-.38-.31-.26-.52-.67-.62-1.25h4.68c.03-.27.04-.54.04-.79 0-1.01-.24-1.78-.73-2.33-.48-.56-1.23-.83-2.24-.83Zm-1.75 2.88c.14-1.06.72-1.6 1.71-1.6.49 0 .87.12 1.14.36.26.25.39.66.38 1.24h-3.23ZM85.12 51.81c.2.18.3.41.3.68.01.55-.43 1.02-.98 1.03h-.05c-.28.01-.54-.1-.74-.29-.19-.2-.3-.47-.29-.74 0-.27.09-.49.29-.68.2-.19.47-.29.74-.29.3 0 .53.1.73.29ZM92.49 60.76c-.21.16-.5.31-.88.44-.37.13-.79.19-1.24.19-.6.01-1.2-.14-1.74-.42-.52-.28-.94-.69-1.23-1.2-.31-.57-.47-1.21-.45-1.85 0-.67.13-1.26.42-1.77.27-.49.68-.9 1.17-1.16.51-.28 1.1-.42 1.76-.42.5 0 .93.07 1.3.2.36.12.64.28.86.47l-.69 1.23c-.34-.37-.83-.59-1.35-.59-.6 0-1.06.18-1.38.55s-.47.86-.47 1.47c0 .7.16 1.25.49 1.63.32.39.78.58 1.36.58.3 0 .58-.04.87-.12.28-.09.49-.19.64-.3l.56 1.07ZM81.79 54.57c.3 0 .51.03.63.09l-.21 1.54c-.09-.05-.28-.08-.56-.08-.44 0-.87.15-1.21.42-.37.29-.55.74-.55 1.37v3.34h-1.53v-6.5h1.53v1.27c.14-.42.39-.78.74-1.05.33-.26.74-.4 1.16-.4ZM83.61 54.75h1.59v6.5h-1.59z"></path>
				</g>
				<g data-name="school">
					<path d="M124.5 55.03c-.52-.3-1.11-.46-1.8-.46s-1.28.16-1.8.46c-.52.3-.92.71-1.2 1.23-.28.52-.42 1.08-.42 1.71s.14 1.2.43 1.73c.28.52.7.94 1.2 1.24.55.3 1.17.46 1.8.45.67 0 1.26-.15 1.78-.45.5-.3.92-.72 1.19-1.24.29-.51.43-1.1.43-1.73s-.14-1.19-.42-1.71a3.06 3.06 0 0 0-1.19-1.23Zm-.45 4.5c-.31.41-.8.63-1.3.61-.52.02-1.02-.21-1.35-.61-.35-.42-.53-.91-.53-1.53s.17-1.14.49-1.55c.33-.42.74-.63 1.3-.63.53 0 1.03.22 1.35.63.34.42.51.94.51 1.55s-.16 1.13-.47 1.53ZM135.95 50.83h1.52v10.42h-1.52zM109.49 59.69l.55 1.07c-.21.16-.5.31-.87.44-.38.13-.79.19-1.25.19-.6.01-1.2-.14-1.73-.42h-.01c-.51-.28-.94-.69-1.22-1.2-.32-.57-.48-1.21-.46-1.85 0-.67.14-1.26.42-1.77.27-.49.68-.9 1.18-1.16.5-.28 1.09-.42 1.75-.42.5 0 .94.07 1.3.2.36.12.65.28.86.47l-.68 1.23a1.87 1.87 0 0 0-1.35-.59c-.61 0-1.07.18-1.38.55-.32.37-.48.86-.48 1.47 0 .7.16 1.25.49 1.63.33.39.78.58 1.37.58.29 0 .58-.04.86-.12.28-.09.49-.19.65-.3ZM117.54 56.16c.13.64.2 1.3.18 1.95v3.13h-1.52V58.1c0-.55-.03-.98-.09-1.29-.04-.27-.17-.52-.37-.71-.18-.16-.45-.24-.8-.24-.31.01-.61.09-.86.26-.3.18-.55.43-.72.74-.19.33-.29.71-.29 1.15v3.23h-1.5V50.83h1.49v3.92l-.05 1.2c.17-.4.46-.73.86-.99.42-.26.9-.4 1.39-.39.67 0 1.19.14 1.55.42.37.29.63.71.73 1.17ZM103.03 57.3c.17.34.25.72.25 1.12 0 .63-.14 1.17-.43 1.62-.29.44-.7.79-1.19 1-.55.24-1.13.35-1.73.34-.57 0-1.13-.1-1.69-.3-.56-.19-.96-.41-1.21-.66l.76-1.34c.19.18.5.36.92.56.42.19.83.29 1.22.29.5 0 .91-.12 1.22-.36.31-.22.49-.59.48-.97.01-.3-.08-.59-.26-.84-.17-.23-.38-.43-.62-.59-.34-.21-.69-.4-1.05-.57-.38-.18-.75-.38-1.11-.6-.92-.61-1.37-1.46-1.37-2.55 0-.9.29-1.58.89-2.06.6-.48 1.35-.72 2.26-.72.98 0 1.8.28 2.49.84l-.76 1.29c-.49-.45-1.13-.7-1.8-.7-.47 0-.85.11-1.11.32-.28.21-.41.52-.41.94 0 .29.08.55.26.79.17.23.38.43.64.6.26.17.62.38 1.06.63.43.23.75.42.98.56.23.14.44.3.64.49.27.24.5.54.67.87ZM132.58 55.03c-.52-.3-1.12-.46-1.8-.46s-1.28.16-1.8.46c-.52.3-.92.71-1.2 1.23-.28.52-.42 1.08-.42 1.71-.01.61.14 1.2.43 1.73.28.52.7.94 1.2 1.24.52.3 1.12.45 1.79.45s1.27-.15 1.78-.45c.51-.3.93-.72 1.2-1.24.29-.51.43-1.1.43-1.73s-.14-1.19-.42-1.71c-.28-.52-.68-.93-1.19-1.23Zm-.45 4.5c-.31.41-.8.63-1.3.61-.52.02-1.02-.21-1.35-.61-.35-.42-.53-.91-.53-1.53s.17-1.14.5-1.55c.32-.42.74-.63 1.29-.63.53 0 1.03.22 1.35.63.34.42.51.94.51 1.55s-.16 1.13-.47 1.53Z"></path>
				</g>
			</g>
			<g data-name="mns" fill="none" stroke="currentColor" stroke-width="9px">
				<g data-name="m" style="clip-path:url(#clippath-2-m)" stroke="#f96033">
					<path data-name="m-line" d="M4.5 40.93v-36h15.67v31.52h15.14V4.99h14.91v35.94"></path>
				</g>
				<g data-name="n" style="clip-path:url(#clippath-2-n)">
					<path data-name="n-line" stroke="#f96033" d="M62.35 40.93V5.42l14.6-.16.29 31.06 14.53.13L91.9.51"></path>
				</g>
				<g data-name="s" style="clip-path:url(#clippath-2-s)">
					<path stroke="#f96033" data-name="s-line" d="M140.04 4.5H104.5v16.32h31.45v16.66H99.48"></path>
				</g>
			</g>
		</svg>